<?xml version="1.0" encoding="utf-8"?>
<svg version="1.1" xmlns="http://www.w3.org/2000/svg" xmlns:xlink="http://www.w3.org/1999/xlink" x="0px" y="0px"
	 viewBox="0 0 256 256" style="enable-background:new 0 0 256 256;" xml:space="preserve">
<style type="text/css">
	.st0{fill:#8A3D67;}
	.st1{opacity:0.4;fill:#FFFFFF;}
	.st2{fill:#FFFFFF;}
</style>
<g>
	<g>
	</g>
	<g>
		<rect class="st0" width="256" height="256"/>
		<g>
			<path class="st1" d="M196.4,103.9c-9.2,0.2-15.4,5.2-19.1,13.1c-3.1,6.5-7.7,11.6-13,16.2c-4.1,3.6-4.8,3.4-5.8-2.2
				c-2-11.7-4.2-23.2-2.9-35.3c1.3-11.9,0.8-24,1.8-36c0.5-5.8,0.6-11.6-1.4-17.2c-0.8-2.2-2-4.1-4.5-4.4c-2.5-0.3-4.2,1.3-5.4,3.2
				c-2.2,3.4-3.3,7.3-4,11.3c-1.6,9.2-2,18.6-2.8,27.9c-0.5,5.8-0.4,11.6-1.8,17.2c-0.3,1.2-0.8,2.3-2.2,2.5c-1.6,0.2-2.6-0.9-3-2.2
				c-0.5-1.7-0.9-3.4-1.1-5.2c-1.4-12.8-2.7-25.7-4-38.5c-0.7-6.8-1.1-13.7-4.7-19.7c-1.7-2.8-4-5.1-7.6-4.3
				c-3.3,0.8-3.8,3.7-4.2,6.6c-0.7,4.5,0.7,8.8,1.1,13.2c1,12.3,1.9,24.5,2.8,36.8c0.4,4.9,1.4,9.9,0.2,15.5c-0.7-1-1.2-1.3-1.3-1.8
				c-3.3-13.6-6.6-27.1-8.5-41c-0.8-5.9-1.2-11.9-4.2-17.2c-1.4-2.5-3.4-4.2-6.5-3.7c-2.8,0.5-4.3,2.5-5,5c-0.4,1.4-0.6,2.9-0.6,4.4
				c-0.3,5.9,1.3,11.4,2.5,17.1c2.6,13.4,4.9,26.9,7.2,40.3c0.4,2.2,0.4,4.8-2.2,5.8c-2.6,1-4.1-0.9-5.5-2.7
				c-4.2-5.4-8.1-11-12.6-16.2C73.5,87.4,70.8,81,66.1,76c-2-2.2-4.6-4.3-7.8-2.2c-3,1.9-3,4.8-2.1,7.9c1.5,5.1,4.5,9.4,7.7,13.5
				c10.7,13.6,18.5,28.5,21.4,45.9c1.9,11.4,4.6,22.7,8.7,33.6c2.1,5.6,2,10.7-0.5,15.9c-1.8,3.8-3,7.8-3.1,12
				c-0.1,6.2-1.6,12-3.5,17.8c-0.6,1.8-1.2,3.6-1.8,5.4h7c1.5-7.6,2.5-15.3,2.2-23.2c-0.4-9.3,1.1-10.1,9.8-8.3
				c3.3,0.7,3.4,2.3,2.2,4.7c-2.9,5.8-4.3,12-5.4,18.3c-0.5,2.8-1,5.7-1.5,8.5h8.6c1.4-6.8,2.1-13.6,0.8-20.8c-0.6-3,1-4.7,4.1-5.2
				c4.3-0.7,8.5-0.5,12.8,0.2c9.4,1.4,9.8,1.6,4,9.4c-3.9,5.2-7.2,10.7-10.1,16.4h6.6c1.4-5.3,3.1-10.5,6.6-14.9
				c3.8-4.8,7.3-9.8,10.2-15.1c3.9-6.9,8.7-13.1,14.2-18.8c9.8-10.1,18.2-21.2,24.4-33.8c1.8-3.8,4.1-7.2,6.6-10.5
				c5-6.8,9.8-13.8,13-21.8C203.2,106,201.6,103.8,196.4,103.9z M144.6,69.2c1.4-3,1.3-6.3,1.3-9.6c0-2.2,0.3-4.4,3.3-4.1
				c3.2,0.3,2.6,2.6,2,4.6c-0.8,3.1-1,6.1,0.4,9.1c1.7,3.9-0.3,4.7-3.7,4.5C144.6,74,142.9,73,144.6,69.2z M140.6,103
				c2.5-7.1,2.7-14.5,2.7-21.9c0-1.7-0.3-3.8,1.6-4.7c1.5-0.7,3.3-0.7,4.7,0.1c1.5,0.8,0.7,2.4,0.6,3.7c-1.1,8.7-1.9,17.3,0.4,26
				c1.4,5.5-3.4,3-5.5,3.4C138.5,109.1,138.5,109.1,140.6,103z M127.2,147.1c0.9,3.4,1.7,6.9,1.5,10.5c-0.1,1.2,0,2.5-0.5,3.5
				c-1.1,2.5-2.6,5.6-5.3,5.3c-3-0.3-1.7-3.9-2-6c-0.2-1.6-0.1-3.2-0.1-4.4c0.7-5.1-0.1-9.6-0.9-14.1c-0.4-2.5-0.9-5-0.7-7.5
				c0.4-4.7,0.6-9.4,0-14.1c-0.6-4.5,1-6,5-5.9c4.2,0.1,6.6,2.4,6,6.4c-0.4,2.9-1.2,5.8-2.3,8.5C125.6,135.1,125.5,141,127.2,147.1z
				 M128.4,102.8c2.9,5.5,1.5,7.5-5,7.7c-2.6,0.5-4.7-0.4-4-3.7c1.8-9.1-0.1-17.9-1.2-26.9c-0.3-2.7-1.3-6.5,4-6.6
				c3.1-0.1,3.9,1,3.6,3.8c-0.3,3.5-0.4,7.1-0.5,10.6C125,93.1,125.9,98.1,128.4,102.8z M119.9,49.2c3.4,0.5,2,2.9,2,4.3
				c-0.6,4.4,1.1,7.7,2.4,11.2c2.1,5.7,1.9,6.2-4.9,6.7c-1.6,0.1-2.6-0.6-2.3-2.4c1-5.2,0.2-10.2-1.2-15.3
				C115,50.4,116.8,48.8,119.9,49.2z M113.3,124.9c-2.6,9.8-2,19.4,1.1,28.9c0.7,2.2,1.8,4.4,2.7,6.6c0.7,1.8,1.6,3.9-1,4.9
				c-2.3,0.9-4.5,0.1-5.6-2.3c-1.2-2.5-1.1-5.2-0.8-8c-0.3-7.1-2-14-3.3-21c-0.6-3.3-0.7-6.5-0.5-9.7c0.2-3.2,1.7-5.1,5.1-4.6
				C114.6,120.1,113.8,123,113.3,124.9z M106.3,83.7c0.4,3.8,0.6,7.7,1,11.5c0.5,5.5,1.3,10.8,3.8,15.8c0.8,1.6,2.3,3.7,0.5,5.3
				c-1.8,1.6-4.6,1.7-6.7,1.3c-2.4-0.5-1.3-3.2-1.6-5c0-0.4,0-0.9,0-1.3c-0.5-8-2.8-15.7-4.3-23.5c-0.5-3-0.6-5.3,3.1-6.6
				C105.1,80.2,106,81.2,106.3,83.7z M97,77.1c0-5.1-0.9-10-2.3-14.9c-0.8-3,0.1-4,3.5-3.9c1.8-0.3,3,0.4,2.8,2.3
				c-0.3,4.8,1.4,9,3,13.3c1.3,3.4-0.2,5.6-3.6,6C98.4,80.1,97,79.5,97,77.1z M73.2,99.9c-1.8,0.4-2.5-1.2-3.1-2.6
				c-1.3-2.7-2.6-5.3-4.8-7.4c-0.7-0.8-1.4-1.7-0.5-2.7c0.5-0.5,1.1-0.9,1.8-1.4c3.3,3.5,6.7,6.7,9.6,10.4
				C76.7,96.6,75.1,99.5,73.2,99.9z M88.3,127.7c-1.7-0.1-2.5-1.4-2.6-2.6c-0.3-6.7-5.1-11.2-7.9-16.6c-0.6-1.2-1.4-2.4-1.6-3.6
				c-0.2-2.1,1.4-3.2,3.2-3.6c1.7-0.5,2.3,1,2.7,2.3c1.9,6.6,5.4,12,11.5,15.7c3.3,2,3.1,3.6-0.3,5.8c-1.4,0.9-2.8,1.7-4.2,2.5
				C88.9,127.6,88.6,127.6,88.3,127.7z M107.4,166.7c-1.9,2.2-4.6,2.7-7.3,2c-2.4-0.6-2.3-2.8-2.3-4.7c0-0.9,0.1-1.8,0.1-2.7
				c0.2-7.3-2.5-14-4.2-20.8c-0.5-1.9-0.9-3.7-1.4-5.6c-0.6-2.2-0.5-4.2,1.5-5.6c1.4-1,3.1-1.1,4.6-0.2c2.2,1.3,2.1,3.6,1.6,5.6
				c-1.4,5.5-0.6,10.9,0.9,16.2c1.1,3.9,2.4,7.6,5.2,10.7C107.4,163,109,164.8,107.4,166.7z M120.8,185.6c-5.8-0.8-8.8-4.7-11.5-9.2
				c-1.5-2.5-0.9-4.5,1.6-6c1.8-1,3.7-1,5.6-1c7.1,0,10.9,3.7,11.1,10.6C127.8,184.5,125.1,186.2,120.8,185.6z M138.2,188.2
				c-3.9,2.8-7.5,6-12.2,7.6c-1,0.3-2.1-0.1-2.6-1.1c-0.7-1.3,0-2.4,1.1-3c3.3-1.9,5.8-4.5,7-8.2c0.5-1.5,2-1.7,3.3-1
				c1.8,1,3.7,2,3.7,4.6C138.4,187.4,138.4,188,138.2,188.2z M140.3,161.6c0.6,4.5-0.8,7.2-5.8,7c-1,0-2,0.4-3.1,0.5
				c-1.2,0.1-2.5,1-3.4,0.1c-1.2-1.3,0.4-2.4,0.9-3.5c5.2-10.1,6.7-21.1,7.3-32.3c0.2-4.9,0.9-9.8,2.1-14.5c0.8-3.3,1.9-6.8,6.2-6.1
				c4.2,0.6,3.8,4.3,3.9,7.4c0.2,5.5-1.9,10.5-3.9,15.4C141,144,139.1,152.5,140.3,161.6z M173.4,150.1c-0.2,0.8-0.8,1.6-1.3,2.3
				c-5.8,7-11.6,13.9-16.5,21.5c-1.3,2-3.5,2.7-5.6,3.1c-3-0.2-4.6-2.2-5.8-4.4c-1.2-2.2,0.5-3.3,2-4.3c8.9-5.5,15-13.1,17.9-23.4
				c0.9-3.2,3.9-2.6,6-1.7C172.8,144.4,174.2,146.9,173.4,150.1z M187.3,126.1c-3.5,5-6.7,10.1-9.2,15.6c-1.3,3-3.1,4-5.3,0.8
				c-1.4-2-5.6-1.7-5.3-4.5c0.2-2.3,4-2,5.6-3.7c3.2-3.3,6.2-6.7,7.7-11.2c0.4-1.2,0.7-3.2,2.3-2.6c2,0.7,3.6,2.3,5.4,3.5
				C188,124.8,187.7,125.5,187.3,126.1z M196.7,111.6c-2.2,2.1-3.6,4.6-4.9,7.3c-0.6,1.3-1.2,2.9-3.2,2.1c-1.6-0.7-3.6-1.1-4-3.1
				c-0.3-1.9,1.4-2.4,2.7-3c2.6-1.1,3.9-3.5,5.6-5.5c1-1.2,2.4-1.7,4-1c0.4,0.2,0.7,0.8,1.1,1.3
				C197.5,110.4,197.2,111.1,196.7,111.6z"/>
			<g>
				<path class="st2" d="M111.1,119.6c-3.4-0.5-4.9,1.5-5.1,4.6c-0.2,3.3-0.1,6.5,0.5,9.8c1.3,7,2.9,13.9,3.3,21
					c-0.3,2.8-0.3,5.5,0.8,8c1.1,2.4,3.3,3.2,5.6,2.3c2.6-1,1.7-3.1,1-4.9c-0.9-2.2-2-4.3-2.7-6.6c-3.1-9.5-3.7-19.1-1.1-28.9
					C113.8,123,114.6,120.1,111.1,119.6z"/>
				<path class="st2" d="M119.9,49.2c-3.1-0.5-4.9,1.2-4,4.5c1.4,5.1,2.3,10.1,1.2,15.3c-0.4,1.8,0.7,2.5,2.3,2.4
					c6.7-0.5,7-1,4.9-6.7c-1.3-3.5-3-6.8-2.4-11.2C122,52.2,123.3,49.8,119.9,49.2z"/>
				<path class="st2" d="M145.1,109.4c2.1-0.4,6.9,2.2,5.5-3.4c-2.3-8.7-1.5-17.3-0.4-26c0.2-1.3,0.9-2.8-0.6-3.7
					c-1.4-0.8-3.2-0.9-4.7-0.1c-2,1-1.6,3-1.6,4.7c0,7.4-0.2,14.8-2.7,21.9C138.5,109.1,138.5,109.1,145.1,109.4z"/>
				<path class="st2" d="M125.7,77.3c0.3-2.9-0.5-3.9-3.7-3.8c-5.2,0.1-4.3,3.8-4,6.6c1.1,8.9,3,17.8,1.2,26.9
					c-0.7,3.3,1.4,4.1,4,3.7c6.5-0.2,7.9-2.2,5-7.7c-2.5-4.8-3.4-9.7-3.2-15C125.3,84.3,125.4,80.8,125.7,77.3z"/>
				<path class="st2" d="M98.2,58.3c-3.4,0-4.3,0.9-3.5,3.9C96.1,67.1,97,72,97,77.1c0,2.4,1.4,3,3.5,2.8c3.4-0.4,4.9-2.6,3.6-6
					c-1.6-4.3-3.4-8.5-3-13.3C101.2,58.7,99.9,58,98.2,58.3z"/>
				<path class="st2" d="M77.9,108.5c2.8,5.5,7.6,9.9,7.9,16.6c0.1,1.2,0.9,2.5,2.6,2.6c0.3-0.1,0.6-0.1,0.8-0.3
					c1.4-0.8,2.8-1.6,4.2-2.5c3.4-2.2,3.6-3.8,0.3-5.8c-6.1-3.7-9.6-9-11.5-15.7c-0.4-1.3-0.9-2.8-2.7-2.3c-1.8,0.5-3.4,1.5-3.2,3.7
					C76.4,106.1,77.3,107.3,77.9,108.5z"/>
				<path class="st2" d="M106.3,199c-2.9,5.8-4.3,12-5.4,18.3c-0.5,2.8-1,5.7-1.5,8.5h-7.3c1.5-7.6,2.5-15.3,2.2-23.2
					c-0.4-9.3,1.1-10.1,9.8-8.3C107.4,194.9,107.6,196.6,106.3,199z"/>
				<path class="st2" d="M66.6,85.7c-0.7,0.6-1.4,0.9-1.8,1.4c-0.9,1-0.3,2,0.5,2.7c2.1,2.1,3.5,4.8,4.8,7.5c0.6,1.3,1.3,3,3.1,2.6
					c1.9-0.4,3.5-3.3,3.1-3.8C73.4,92.4,70,89.2,66.6,85.7z"/>
				<path class="st2" d="M149.3,55.5c-3-0.3-3.2,1.9-3.3,4.1c0,3.2,0,6.6-1.4,9.6c-1.8,3.8-0.1,4.8,3.4,4.5c3.4,0.2,5.4-0.7,3.7-4.5
					c-1.3-3-1.2-6-0.4-9.1C151.9,58.1,152.5,55.8,149.3,55.5z"/>
				<path class="st2" d="M93.7,140.4c1.7,6.9,4.3,13.6,4.2,20.9c0,0.9-0.1,1.8-0.1,2.7c0,2-0.1,4.1,2.3,4.7c2.7,0.7,5.5,0.2,7.3-2
					c1.6-1.9,0-3.7-1.2-5.1c-2.8-3.1-4.1-6.8-5.2-10.7c-1.5-5.4-2.4-10.7-0.9-16.2c0.5-2,0.6-4.3-1.6-5.6c-1.5-0.9-3.2-0.8-4.6,0.2
					c-2,1.4-2.1,3.4-1.5,5.6C92.8,136.7,93.2,138.6,93.7,140.4z"/>
				<path class="st2" d="M107.3,95.2c-0.4-3.8-0.6-7.7-1-11.5c-0.3-2.6-1.1-3.5-4.1-2.5c-3.7,1.3-3.7,3.6-3.1,6.6
					c1.4,7.8,3.7,15.5,4.3,23.5c0,0.4,0,0.9,0,1.3c0.2,1.8-0.9,4.5,1.5,5c2.2,0.4,4.9,0.3,6.7-1.3c1.8-1.6,0.3-3.7-0.5-5.3
					C108.6,106,107.8,100.7,107.3,95.2z"/>
				<path class="st2" d="M124.2,114.2c-4-0.1-5.6,1.4-5,5.9c0.6,4.8,0.4,9.4,0,14.1c-0.2,2.5,0.2,5,0.7,7.5c0.8,4.5,1.6,9,0.9,14.2
					c0,1.1-0.2,2.8,0,4.4c0.3,2.2-1,5.7,2,6c2.7,0.3,4.3-2.8,5.3-5.3c0.4-1,0.4-2.3,0.5-3.5c0.2-3.6-0.6-7.1-1.5-10.5
					c-1.7-6.1-1.6-11.9,0.8-17.8c1.1-2.7,1.9-5.6,2.3-8.6C130.8,116.7,128.4,114.3,124.2,114.2z"/>
				<path class="st2" d="M127.7,180.1c-0.2-6.9-4-10.6-11.1-10.6c-1.9,0-3.9,0-5.6,1c-2.5,1.5-3.2,3.5-1.6,6
					c2.7,4.4,5.6,8.3,11.5,9.1C125.1,186.2,127.8,184.5,127.7,180.1z"/>
				<path class="st2" d="M129.8,209.4c-3.9,5.2-7.2,10.7-10.1,16.4H108c1.4-6.8,2.1-13.6,0.8-20.8c-0.6-3,1-4.7,4.1-5.2
					c4.3-0.7,8.5-0.5,12.8,0.2C135.2,201.4,135.5,201.6,129.8,209.4z"/>
				<path class="st2" d="M180.8,123.1c-1.5,4.5-4.5,7.9-7.7,11.2c-1.7,1.7-5.4,1.5-5.6,3.7c-0.3,2.8,3.9,2.5,5.3,4.5
					c2.3,3.2,4,2.2,5.3-0.8c2.5-5.6,5.7-10.7,9.2-15.6c0.4-0.6,0.8-1.3,1.3-2.1c-1.8-1.2-3.5-2.8-5.4-3.5
					C181.5,119.9,181.2,121.9,180.8,123.1z"/>
				<path class="st2" d="M188.5,120.9c2,0.8,2.6-0.8,3.2-2.1c1.3-2.6,2.8-5.2,4.9-7.3c0.5-0.5,0.8-1.2,1.3-1.9
					c-0.4-0.5-0.7-1.1-1.1-1.3c-1.6-0.7-3-0.1-4,1c-1.7,2-3,4.4-5.6,5.4c-1.3,0.6-3.1,1.1-2.7,3C185,119.8,186.9,120.3,188.5,120.9z
					"/>
				<path class="st2" d="M164,145c-2.8,10.3-8.9,17.8-17.9,23.4c-1.5,0.9-3.2,2.1-2,4.3c1.2,2.3,2.7,4.3,5.8,4.4
					c2.1-0.4,4.3-1.1,5.6-3.1c4.9-7.6,10.8-14.6,16.5-21.5c0.6-0.7,1.1-1.5,1.3-2.3c0.8-3.2-0.6-5.7-3.4-6.9
					C168,142.4,164.9,141.8,164,145z"/>
				<path class="st2" d="M126,195.8c4.6-1.6,8.3-4.8,12.2-7.6c0.3-0.2,0.3-0.8,0.3-1.1c0-2.6-1.9-3.7-3.7-4.6
					c-1.4-0.7-2.8-0.5-3.3,1c-1.3,3.7-3.7,6.2-7,8.2c-1,0.6-1.8,1.7-1.1,3C123.9,195.7,125,196.1,126,195.8z"/>
				<path class="st2" d="M136.3,133.4c-0.6,11.2-2.1,22.1-7.3,32.3c-0.6,1.1-2.1,2.2-0.9,3.5c0.9,1,2.3,0,3.4,0
					c1-0.1,2.1-0.5,3.1-0.5c5,0.2,6.4-2.5,5.8-7c-1.2-9.1,0.8-17.6,4.2-26c2-4.9,4.1-9.9,3.9-15.4c-0.1-3.1,0.3-6.8-3.9-7.4
					c-4.3-0.6-5.4,2.8-6.2,6.1C137.1,123.6,136.5,128.5,136.3,133.4z"/>
			</g>
		</g>
	</g>
</g>
<g>
</g>
</svg>
